<?xml version="1.0" encoding="UTF-8" standalone="no"?>
<!DOCTYPE svg PUBLIC "-//W3C//DTD SVG 1.1//EN"
 "http://www.w3.org/Graphics/SVG/1.1/DTD/svg11.dtd">
<!-- Generated by graphviz version 12.2.0 (20241103.1931)
 -->
<!-- Title: packages_kyrsach Pages: 1 -->
<svg width="1201pt" height="332pt"
 viewBox="0.00 0.00 1200.62 332.00" xmlns="http://www.w3.org/2000/svg" xmlns:xlink="http://www.w3.org/1999/xlink">
<g id="graph0" class="graph" transform="scale(1 1) rotate(0) translate(4 328)">
<title>packages_kyrsach</title>
<polygon fill="white" stroke="none" points="-4,4 -4,-328 1196.62,-328 1196.62,4 -4,4"/>
<!-- KYRSACH_CG_5_sem_BMSTU -->
<g id="node1" class="node">
<title>KYRSACH_CG_5_sem_BMSTU</title>
<polygon fill="none" stroke="black" points="202.75,-36 0,-36 0,0 202.75,0 202.75,-36"/>
<text text-anchor="middle" x="101.38" y="-12.95" font-family="Times New Roman,serif" font-size="14.00">KYRSACH_CG_5_sem_BMSTU</text>
</g>
<!-- KYRSACH_CG_5_sem_BMSTU.Add_interface -->
<g id="node2" class="node">
<title>KYRSACH_CG_5_sem_BMSTU.Add_interface</title>
<polygon fill="none" stroke="black" points="301.25,-180 17.5,-180 17.5,-144 301.25,-144 301.25,-180"/>
<text text-anchor="middle" x="159.38" y="-156.95" font-family="Times New Roman,serif" font-size="14.00">KYRSACH_CG_5_sem_BMSTU.Add_interface</text>
</g>
<!-- KYRSACH_CG_5_sem_BMSTU.Objects -->
<g id="node7" class="node">
<title>KYRSACH_CG_5_sem_BMSTU.Objects</title>
<polygon fill="none" stroke="black" points="290.25,-252 42.5,-252 42.5,-216 290.25,-216 290.25,-252"/>
<text text-anchor="middle" x="166.38" y="-228.95" font-family="Times New Roman,serif" font-size="14.00">KYRSACH_CG_5_sem_BMSTU.Objects</text>
</g>
<!-- KYRSACH_CG_5_sem_BMSTU.Add_interface&#45;&gt;KYRSACH_CG_5_sem_BMSTU.Objects -->
<g id="edge1" class="edge">
<title>KYRSACH_CG_5_sem_BMSTU.Add_interface&#45;&gt;KYRSACH_CG_5_sem_BMSTU.Objects</title>
<path fill="none" stroke="black" d="M161.11,-180.3C161.84,-187.68 162.72,-196.48 163.55,-204.75"/>
<polygon fill="black" stroke="black" points="164.54,-214.68 159.07,-205.18 164.17,-210.92 163.55,-204.73 163.55,-204.73 163.55,-204.73 164.17,-210.92 168.03,-204.29 164.54,-214.68"/>
</g>
<!-- KYRSACH_CG_5_sem_BMSTU.Change_color -->
<g id="node3" class="node">
<title>KYRSACH_CG_5_sem_BMSTU.Change_color</title>
<polygon fill="none" stroke="black" points="590.5,-252 308.25,-252 308.25,-216 590.5,-216 590.5,-252"/>
<text text-anchor="middle" x="449.38" y="-228.95" font-family="Times New Roman,serif" font-size="14.00">KYRSACH_CG_5_sem_BMSTU.Change_color</text>
</g>
<!-- KYRSACH_CG_5_sem_BMSTU.Del_change_object -->
<g id="node4" class="node">
<title>KYRSACH_CG_5_sem_BMSTU.Del_change_object</title>
<polygon fill="none" stroke="black" points="339.75,-108 29,-108 29,-72 339.75,-72 339.75,-108"/>
<text text-anchor="middle" x="184.38" y="-84.95" font-family="Times New Roman,serif" font-size="14.00">KYRSACH_CG_5_sem_BMSTU.Del_change_object</text>
</g>
<!-- KYRSACH_CG_5_sem_BMSTU.Del_change_object&#45;&gt;KYRSACH_CG_5_sem_BMSTU.Add_interface -->
<g id="edge2" class="edge">
<title>KYRSACH_CG_5_sem_BMSTU.Del_change_object&#45;&gt;KYRSACH_CG_5_sem_BMSTU.Add_interface</title>
<path fill="none" stroke="black" d="M178.2,-108.3C175.47,-115.93 172.2,-125.08 169.16,-133.6"/>
<polygon fill="black" stroke="black" points="165.89,-142.75 165.02,-131.82 167.17,-139.19 169.26,-133.33 169.26,-133.33 169.26,-133.33 167.17,-139.19 173.49,-134.84 165.89,-142.75"/>
</g>
<!-- KYRSACH_CG_5_sem_BMSTU.Load_scene -->
<g id="node5" class="node">
<title>KYRSACH_CG_5_sem_BMSTU.Load_scene</title>
<polygon fill="none" stroke="black" points="628.88,-108 357.88,-108 357.88,-72 628.88,-72 628.88,-108"/>
<text text-anchor="middle" x="493.38" y="-84.95" font-family="Times New Roman,serif" font-size="14.00">KYRSACH_CG_5_sem_BMSTU.Load_scene</text>
</g>
<!-- KYRSACH_CG_5_sem_BMSTU.Load_scene&#45;&gt;KYRSACH_CG_5_sem_BMSTU.Add_interface -->
<g id="edge3" class="edge">
<title>KYRSACH_CG_5_sem_BMSTU.Load_scene&#45;&gt;KYRSACH_CG_5_sem_BMSTU.Add_interface</title>
<path fill="none" stroke="black" d="M409.95,-108.48C362.44,-118.44 302.77,-130.95 253.57,-141.26"/>
<polygon fill="black" stroke="black" points="243.79,-143.31 252.66,-136.85 247.49,-142.53 253.58,-141.26 253.58,-141.26 253.58,-141.26 247.49,-142.53 254.5,-145.66 243.79,-143.31"/>
</g>
<!-- KYRSACH_CG_5_sem_BMSTU.Matrix -->
<g id="node6" class="node">
<title>KYRSACH_CG_5_sem_BMSTU.Matrix</title>
<polygon fill="none" stroke="black" points="852.38,-252 608.38,-252 608.38,-216 852.38,-216 852.38,-252"/>
<text text-anchor="middle" x="730.38" y="-228.95" font-family="Times New Roman,serif" font-size="14.00">KYRSACH_CG_5_sem_BMSTU.Matrix</text>
</g>
<!-- KYRSACH_CG_5_sem_BMSTU.Point -->
<g id="node8" class="node">
<title>KYRSACH_CG_5_sem_BMSTU.Point</title>
<polygon fill="none" stroke="black" points="922.88,-324 687.88,-324 687.88,-288 922.88,-288 922.88,-324"/>
<text text-anchor="middle" x="805.38" y="-300.95" font-family="Times New Roman,serif" font-size="14.00">KYRSACH_CG_5_sem_BMSTU.Point</text>
</g>
<!-- KYRSACH_CG_5_sem_BMSTU.Matrix&#45;&gt;KYRSACH_CG_5_sem_BMSTU.Point -->
<g id="edge4" class="edge">
<title>KYRSACH_CG_5_sem_BMSTU.Matrix&#45;&gt;KYRSACH_CG_5_sem_BMSTU.Point</title>
<path fill="none" stroke="black" d="M748.91,-252.3C757.93,-260.72 768.93,-270.98 778.81,-280.21"/>
<polygon fill="black" stroke="black" points="785.9,-286.82 775.52,-283.29 783.13,-284.24 778.59,-280 778.59,-280 778.59,-280 783.13,-284.24 781.66,-276.71 785.9,-286.82"/>
</g>
<!-- KYRSACH_CG_5_sem_BMSTU.Objects&#45;&gt;KYRSACH_CG_5_sem_BMSTU.Point -->
<g id="edge5" class="edge">
<title>KYRSACH_CG_5_sem_BMSTU.Objects&#45;&gt;KYRSACH_CG_5_sem_BMSTU.Point</title>
<path fill="none" stroke="black" d="M290.61,-250.97C293.56,-251.32 296.48,-251.66 299.38,-252 427.52,-266.9 574.14,-282.05 676.45,-292.31"/>
<polygon fill="black" stroke="black" points="686.25,-293.29 675.85,-296.78 682.48,-292.92 676.3,-292.3 676.3,-292.3 676.3,-292.3 682.48,-292.92 676.74,-287.82 686.25,-293.29"/>
</g>
<!-- KYRSACH_CG_5_sem_BMSTU.Scene -->
<g id="node9" class="node">
<title>KYRSACH_CG_5_sem_BMSTU.Scene</title>
<polygon fill="none" stroke="black" points="849.75,-180 611,-180 611,-144 849.75,-144 849.75,-180"/>
<text text-anchor="middle" x="730.38" y="-156.95" font-family="Times New Roman,serif" font-size="14.00">KYRSACH_CG_5_sem_BMSTU.Scene</text>
</g>
<!-- KYRSACH_CG_5_sem_BMSTU.Scene&#45;&gt;KYRSACH_CG_5_sem_BMSTU.Change_color -->
<g id="edge6" class="edge">
<title>KYRSACH_CG_5_sem_BMSTU.Scene&#45;&gt;KYRSACH_CG_5_sem_BMSTU.Change_color</title>
<path fill="none" stroke="black" d="M660.19,-180.48C620.65,-190.33 571.09,-202.68 529.96,-212.93"/>
<polygon fill="black" stroke="black" points="520.33,-215.32 528.95,-208.54 524,-214.41 530.04,-212.91 530.04,-212.91 530.04,-212.91 524,-214.41 531.12,-217.27 520.33,-215.32"/>
</g>
<!-- KYRSACH_CG_5_sem_BMSTU.Scene&#45;&gt;KYRSACH_CG_5_sem_BMSTU.Matrix -->
<g id="edge7" class="edge">
<title>KYRSACH_CG_5_sem_BMSTU.Scene&#45;&gt;KYRSACH_CG_5_sem_BMSTU.Matrix</title>
<path fill="none" stroke="black" d="M730.38,-180.3C730.38,-187.68 730.38,-196.48 730.38,-204.75"/>
<polygon fill="black" stroke="black" points="730.38,-214.68 725.88,-204.68 730.38,-210.9 730.38,-204.68 730.38,-204.68 730.38,-204.68 730.38,-210.9 734.88,-204.68 730.38,-214.68"/>
</g>
<!-- KYRSACH_CG_5_sem_BMSTU.Scene&#45;&gt;KYRSACH_CG_5_sem_BMSTU.Objects -->
<g id="edge8" class="edge">
<title>KYRSACH_CG_5_sem_BMSTU.Scene&#45;&gt;KYRSACH_CG_5_sem_BMSTU.Objects</title>
<path fill="none" stroke="black" d="M610.81,-178.93C607.97,-179.29 605.16,-179.65 602.38,-180 471.37,-196.48 435.82,-199.26 301.73,-215.72"/>
<polygon fill="black" stroke="black" points="291.83,-216.94 301.2,-211.25 295.58,-216.47 301.75,-215.71 301.75,-215.71 301.75,-215.71 295.58,-216.47 302.3,-220.18 291.83,-216.94"/>
</g>
<!-- KYRSACH_CG_5_sem_BMSTU.Scene&#45;&gt;KYRSACH_CG_5_sem_BMSTU.Point -->
<g id="edge9" class="edge">
<title>KYRSACH_CG_5_sem_BMSTU.Scene&#45;&gt;KYRSACH_CG_5_sem_BMSTU.Point</title>
<path fill="none" stroke="black" d="M815.1,-180.49C833.28,-188.31 850.33,-199.62 861.38,-216 870.32,-229.27 867.7,-237.3 861.38,-252 856.72,-262.81 848.66,-272.44 840.08,-280.44"/>
<polygon fill="black" stroke="black" points="832.72,-286.79 837.35,-276.85 835.58,-284.32 840.29,-280.26 840.29,-280.26 840.29,-280.26 835.58,-284.32 843.23,-283.67 832.72,-286.79"/>
</g>
<!-- KYRSACH_CG_5_sem_BMSTU.Z_buffer_algo -->
<g id="node10" class="node">
<title>KYRSACH_CG_5_sem_BMSTU.Z_buffer_algo</title>
<polygon fill="none" stroke="black" points="1192.62,-252 908.12,-252 908.12,-216 1192.62,-216 1192.62,-252"/>
<text text-anchor="middle" x="1050.38" y="-228.95" font-family="Times New Roman,serif" font-size="14.00">KYRSACH_CG_5_sem_BMSTU.Z_buffer_algo</text>
</g>
<!-- KYRSACH_CG_5_sem_BMSTU.Scene&#45;&gt;KYRSACH_CG_5_sem_BMSTU.Z_buffer_algo -->
<g id="edge10" class="edge">
<title>KYRSACH_CG_5_sem_BMSTU.Scene&#45;&gt;KYRSACH_CG_5_sem_BMSTU.Z_buffer_algo</title>
<path fill="none" stroke="black" d="M810.3,-180.48C855.73,-190.42 912.75,-202.9 959.83,-213.19"/>
<polygon fill="black" stroke="black" points="969.45,-215.3 958.72,-217.56 965.75,-214.49 959.68,-213.16 959.68,-213.16 959.68,-213.16 965.75,-214.49 960.64,-208.76 969.45,-215.3"/>
</g>
<!-- KYRSACH_CG_5_sem_BMSTU.Z_buffer_algo&#45;&gt;KYRSACH_CG_5_sem_BMSTU.Point -->
<g id="edge11" class="edge">
<title>KYRSACH_CG_5_sem_BMSTU.Z_buffer_algo&#45;&gt;KYRSACH_CG_5_sem_BMSTU.Point</title>
<path fill="none" stroke="black" d="M989.18,-252.48C955,-262.25 912.23,-274.47 876.55,-284.66"/>
<polygon fill="black" stroke="black" points="867.38,-287.28 875.76,-280.21 871.02,-286.24 877,-284.54 877,-284.54 877,-284.54 871.02,-286.24 878.23,-288.86 867.38,-287.28"/>
</g>
<!-- KYRSACH_CG_5_sem_BMSTU.file -->
<g id="node11" class="node">
<title>KYRSACH_CG_5_sem_BMSTU.file</title>
<polygon fill="none" stroke="black" points="697.62,-36 473.12,-36 473.12,0 697.62,0 697.62,-36"/>
<text text-anchor="middle" x="585.38" y="-12.95" font-family="Times New Roman,serif" font-size="14.00">KYRSACH_CG_5_sem_BMSTU.file</text>
</g>
<!-- KYRSACH_CG_5_sem_BMSTU.file1 -->
<g id="node12" class="node">
<title>KYRSACH_CG_5_sem_BMSTU.file1</title>
<polygon fill="none" stroke="black" points="947,-36 715.75,-36 715.75,0 947,0 947,-36"/>
<text text-anchor="middle" x="831.38" y="-12.95" font-family="Times New Roman,serif" font-size="14.00">KYRSACH_CG_5_sem_BMSTU.file1</text>
</g>
<!-- KYRSACH_CG_5_sem_BMSTU.main -->
<g id="node13" class="node">
<title>KYRSACH_CG_5_sem_BMSTU.main</title>
<polygon fill="none" stroke="black" points="455.5,-36 221.25,-36 221.25,0 455.5,0 455.5,-36"/>
<text text-anchor="middle" x="338.38" y="-12.95" font-family="Times New Roman,serif" font-size="14.00">KYRSACH_CG_5_sem_BMSTU.main</text>
</g>
<!-- KYRSACH_CG_5_sem_BMSTU.main&#45;&gt;KYRSACH_CG_5_sem_BMSTU.Add_interface -->
<g id="edge12" class="edge">
<title>KYRSACH_CG_5_sem_BMSTU.main&#45;&gt;KYRSACH_CG_5_sem_BMSTU.Add_interface</title>
<path fill="none" stroke="black" d="M220.8,-34.99C133.02,-47.51 27.09,-64.07 20.38,-72 10.03,-84.21 11.3,-94.82 20.38,-108 29.63,-121.43 42.78,-131.46 57.34,-138.95"/>
<polygon fill="black" stroke="black" points="65.98,-143 55.02,-142.84 62.56,-141.4 56.92,-138.76 56.92,-138.76 56.92,-138.76 62.56,-141.4 58.83,-134.69 65.98,-143"/>
</g>
<!-- KYRSACH_CG_5_sem_BMSTU.main&#45;&gt;KYRSACH_CG_5_sem_BMSTU.Del_change_object -->
<g id="edge13" class="edge">
<title>KYRSACH_CG_5_sem_BMSTU.main&#45;&gt;KYRSACH_CG_5_sem_BMSTU.Del_change_object</title>
<path fill="none" stroke="black" d="M299.91,-36.48C279.53,-45.75 254.3,-57.22 232.62,-67.07"/>
<polygon fill="black" stroke="black" points="223.72,-71.11 230.97,-62.88 227.17,-69.55 232.83,-66.98 232.83,-66.98 232.83,-66.98 227.17,-69.55 234.69,-71.07 223.72,-71.11"/>
</g>
<!-- KYRSACH_CG_5_sem_BMSTU.main&#45;&gt;KYRSACH_CG_5_sem_BMSTU.Load_scene -->
<g id="edge14" class="edge">
<title>KYRSACH_CG_5_sem_BMSTU.main&#45;&gt;KYRSACH_CG_5_sem_BMSTU.Load_scene</title>
<path fill="none" stroke="black" d="M377.09,-36.48C397.6,-45.75 423,-57.22 444.82,-67.07"/>
<polygon fill="black" stroke="black" points="453.78,-71.12 442.81,-71.1 450.33,-69.56 444.66,-67 444.66,-67 444.66,-67 450.33,-69.56 446.51,-62.9 453.78,-71.12"/>
</g>
<!-- KYRSACH_CG_5_sem_BMSTU.main&#45;&gt;KYRSACH_CG_5_sem_BMSTU.Scene -->
<g id="edge15" class="edge">
<title>KYRSACH_CG_5_sem_BMSTU.main&#45;&gt;KYRSACH_CG_5_sem_BMSTU.Scene</title>
<path fill="none" stroke="black" d="M455.96,-36.41C532.76,-48.36 621.8,-63.54 638.38,-72 667.86,-87.05 694.18,-114.71 711.04,-135.22"/>
<polygon fill="black" stroke="black" points="717.12,-142.84 707.36,-137.83 714.76,-139.89 710.88,-135.03 710.88,-135.03 710.88,-135.03 714.76,-139.89 714.4,-132.22 717.12,-142.84"/>
</g>
<!-- KYRSACH_CG_5_sem_BMSTU.test_Objects -->
<g id="node14" class="node">
<title>KYRSACH_CG_5_sem_BMSTU.test_Objects</title>
<polygon fill="none" stroke="black" points="593,-180 319.75,-180 319.75,-144 593,-144 593,-180"/>
<text text-anchor="middle" x="456.38" y="-156.95" font-family="Times New Roman,serif" font-size="14.00">KYRSACH_CG_5_sem_BMSTU.test_Objects</text>
</g>
<!-- KYRSACH_CG_5_sem_BMSTU.test_Objects&#45;&gt;KYRSACH_CG_5_sem_BMSTU.Objects -->
<g id="edge16" class="edge">
<title>KYRSACH_CG_5_sem_BMSTU.test_Objects&#45;&gt;KYRSACH_CG_5_sem_BMSTU.Objects</title>
<path fill="none" stroke="black" d="M383.94,-180.48C343.12,-190.34 291.96,-202.69 249.51,-212.93"/>
<polygon fill="black" stroke="black" points="239.82,-215.27 248.49,-208.55 243.5,-214.38 249.54,-212.93 249.54,-212.93 249.54,-212.93 243.5,-214.38 250.6,-217.3 239.82,-215.27"/>
</g>
</g>
</svg>
